<svg xmlns="http://www.w3.org/2000/svg" viewBox="0 0 24 24" width="40" height="40" fill="none">
  <path fill="#FF7A59" d="M21.5 10.3h-4.3c-.4-1.2-1.3-2.1-2.5-2.5V3.5c0-.8-.7-1.5-1.5-1.5s-1.5.7-1.5 1.5v4.3c-1.2.4-2.1 1.3-2.5 2.5H5c-.8 0-1.5.7-1.5 1.5s.7 1.5 1.5 1.5h4.3c.4 1.2 1.3 2.1 2.5 2.5v1.8l-3.2 3.2c-.6-.4-1.3-.6-2.1-.6-2 0-3.5 1.6-3.5 3.5S4.3 24 6.2 24s3.5-1.6 3.5-3.5c0-.8-.2-1.5-.6-2.1l3.2-3.2c1.2.4 2.1.3 3.3-.2l3.2 3.2c-.4.6-.6 1.3-.6 2.1 0 2 1.6 3.5 3.5 3.5s3.5-1.6 3.5-3.5-1.6-3.5-3.5-3.5c-.8 0-1.5.2-2.1.6l-3.2-3.2v-1.8c1.2-.4 2.1-1.3 2.5-2.5h4.3c.8 0 1.5-.7 1.5-1.5s-.7-1.5-1.5-1.5zm-8.3 4.2c-1.4 0-2.5-1.1-2.5-2.5s1.1-2.5 2.5-2.5 2.5 1.1 2.5 2.5-1.1 2.5-2.5 2.5z"/>
</svg>
