<svg xmlns="http://www.w3.org/2000/svg" viewBox="0 0 24 24" width="40" height="40">
  <path fill="#0668E1" d="M16.516 6.5c-1.578 0-2.995.823-3.953 2.138a5.27 5.27 0 0 0-.563-.8c-.958-1.315-2.375-2.138-3.953-2.138C5.23 6.5 3 8.783 3 11.597c0 2.813 2.23 5.097 5.047 5.097 1.578 0 2.995-.824 3.953-2.139.176.24.364.509.563.8.958 1.315 2.375 2.139 3.953 2.139C19.77 16.694 22 14.41 22 11.597 22 8.783 19.77 6.5 16.516 6.5zm0 8.243c-1.077 0-2.073-.615-2.73-1.636a11.168 11.168 0 0 0-.786-1.127 11.168 11.168 0 0 0-.786-1.127c-.657-1.02-1.653-1.636-2.73-1.636-1.745 0-3.155 1.455-3.155 3.253 0 1.797 1.41 3.252 3.155 3.252 1.077 0 2.073-.615 2.73-1.636.14-.216.273-.443.4-.68.127.237.26.464.4.68.657 1.02 1.653 1.636 2.73 1.636 1.745 0 3.155-1.455 3.155-3.252 0-1.798-1.41-3.253-3.155-3.253 1.077 0 2.073.615 2.73 1.636z"/>
</svg>
